<svg width="32" height="32" viewBox="0 0 64 64" fill="none" xmlns="http://www.w3.org/2000/svg">
  <!-- Hexagon background -->
  <path d="M32 4L54 18V46L32 60L10 46V18L32 4Z" fill="#3b82f6" fill-opacity="0.1" stroke="#3b82f6" stroke-width="2"/>
  
  <!-- Center nexus point -->
  <circle cx="32" cy="32" r="6" fill="#3b82f6"/>
  
  <!-- Connecting lines - creating a weaver pattern -->
  <path d="M32 26V14M32 38V50M38 29L48 22M26 29L16 22M38 35L48 42M26 35L16 42" stroke="#60a5fa" stroke-width="2" stroke-linecap="round"/>
  
  <!-- Outer connection points -->
  <circle cx="32" cy="14" r="3" fill="#2563eb"/>
  <circle cx="48" cy="22" r="3" fill="#2563eb"/>
  <circle cx="48" cy="42" r="3" fill="#2563eb"/>
  <circle cx="32" cy="50" r="3" fill="#2563eb"/>
  <circle cx="16" cy="42" r="3" fill="#2563eb"/>
  <circle cx="16" cy="22" r="3" fill="#2563eb"/>
  
  <!-- Additional weaving lines for depth -->
  <path d="M16 22L32 26M48 22L32 26M16 42L32 38M48 42L32 38" stroke="#60a5fa" stroke-width="1.5" stroke-linecap="round" opacity="0.5"/>
</svg>